<svg xmlns="http://www.w3.org/2000/svg" width="528.604" height="666.072" viewBox="0 0 528.604 666.072">
  <defs>
    <style>
      .cls-1 {
        fill: #4c2f49;
        stroke: #c1a4a4;
      }

      .cls-2 {
        fill: #ffe2fb;
      }

      .cls-3 {
        fill: #ffcefa;
      }

      .cls-4 {
        fill: #e4b8df;
      }

      .cls-5 {
        fill: #fdd8f9;
      }

      .cls-6, .cls-8 {
        stroke: none;
      }

      .cls-7 {
        fill: none;
      }

      .cls-8 {
        fill: #fff;
      }
    </style>
  </defs>
  <g id="christmas-tree" transform="translate(-295.424 -96.928)">
    <g id="Group_39" data-name="Group 39" transform="translate(345.332 301.937)">
      <g id="Rectangle_25" data-name="Rectangle 25" class="cls-1" transform="translate(172.409 378.063)">
        <rect class="cls-6" width="83" height="83"/>
        <rect class="cls-7" x="0.5" y="0.5" width="82" height="82"/>
      </g>
      <g id="Group_40" data-name="Group 40" transform="translate(-49.908 95.879)">
        <g id="Group_37" data-name="Group 37" transform="translate(0 0)">
          <g id="Path_22" data-name="Path 22" class="cls-2" transform="translate(6.299 59.902) rotate(-7)">
            <path class="cls-6" d="M 490.3988647460938 282.0592041015625 L 1.086617708206177 273.6409301757812 L 240.2122955322266 0.7555159330368042 L 490.3988647460938 282.0592041015625 Z"/>
            <path class="cls-8" d="M 240.2151184082031 1.511016845703125 L 2.173309326171875 273.1594848632812 L 489.2676696777344 281.5396728515625 L 240.2151184082031 1.511016845703125 M 240.2095489501953 0 L 491.5301208496094 282.5787658691406 L -3.0517578125e-05 274.1222534179688 L 240.2095489501953 0 Z"/>
          </g>
          <g id="Path_20" data-name="Path 20" class="cls-3" transform="translate(455.232 280.126) rotate(173)">
            <path class="cls-6" d="M 179.2636871337891 269.2328186035156 L 0.945932924747467 26.65318489074707 L 424.29541015625 0.5749166011810303 L 179.2636871337891 269.2328186035156 Z"/>
            <path class="cls-8" d="M 179.3052825927734 268.4452209472656 L 423.0942993164062 1.149850845336914 L 1.891897201538086 27.09585952758789 L 179.3052825927734 268.4452209472656 M 179.2220916748047 270.0204162597656 L -1.791863724065479e-05 26.21050834655762 L 425.4965209960938 -1.76552221091697e-05 L 179.2220916748047 270.0204162597656 Z"/>
          </g>
        </g>
        <path id="Path_21" data-name="Path 21" class="cls-4" d="M58.457,0,290.036,1.468,288.162,63.9,0,64.146Z" transform="translate(112.793 147.28) rotate(-7)"/>
      </g>
      <g id="Group_37-2" data-name="Group 37" transform="translate(-2.18 0)">
        <g id="Path_22-2" data-name="Path 22" class="cls-2" transform="translate(417.893 291.556) rotate(-173)">
          <path class="cls-6" d="M 205.7597351074219 241.2938537597656 L 1.086657524108887 7.725005149841309 L 419.900146484375 0.5195835828781128 L 205.7597351074219 241.2938537597656 Z"/>
          <path class="cls-8" d="M 205.7625122070312 240.5383605957031 L 418.7689819335938 1.039088010787964 L 2.173268556594849 8.206354141235352 L 205.7625122070312 240.5383605957031 M 205.7569427490234 242.0493469238281 L 1.824629862312577e-06 7.243605613708496 L 421.0313720703125 2.662417682586238e-05 L 205.7569427490234 242.0493469238281 Z"/>
        </g>
        <g id="Path_20-2" data-name="Path 20" class="cls-3" transform="translate(91.035 10.381) rotate(7)">
          <path class="cls-6" d="M 363.2677001953125 230.7172393798828 L 0.945977509021759 208.3982696533203 L 153.5583953857422 0.7876195311546326 L 363.2677001953125 230.7172393798828 Z"/>
          <path class="cls-8" d="M 153.5999908447266 1.575164794921875 L 1.891876220703125 207.9555969238281 L 362.0665588378906 230.1422576904297 L 153.5999908447266 1.575164794921875 M 153.5167999267578 -1.52587890625e-05 L 364.46875 231.2921142578125 L -3.0517578125e-05 208.8409423828125 L 153.5167999267578 -1.52587890625e-05 Z"/>
        </g>
      </g>
      <path id="Path_21-2" data-name="Path 21" class="cls-4" d="M50.073,54.946l198.365-1.258L226.673,22,0,0Z" transform="translate(347.295 180.692) rotate(-173)"/>
    </g>
    <g id="Group_38" data-name="Group 38" transform="translate(-27.734)">
      <g id="Group_37-3" data-name="Group 37" transform="translate(375.782 203.5)">
        <g id="Path_22-3" data-name="Path 22" class="cls-2" transform="translate(4.557 37.658) rotate(-7)">
          <path class="cls-6" d="M 362.2821350097656 209.1616058349609 L 5.148240566253662 203.0173492431641 L 179.6786346435547 3.846688985824585 L 362.2821350097656 209.1616058349609 Z"/>
          <path class="cls-8" d="M 179.6813812255859 4.602203369140625 L 6.234832763671875 202.535888671875 L 361.1507873535156 208.6420288085938 L 179.6813812255859 4.602203369140625 M 179.6758422851562 3.091201782226562 L 363.4132385253906 209.6811218261719 L 4.061553955078125 203.4986572265625 L 179.6758422851562 3.091201782226562 Z"/>
        </g>
        <g id="Path_20-3" data-name="Path 20" class="cls-3" transform="translate(338.313 206.495) rotate(173)">
          <path class="cls-6" d="M 131.5581665039062 201.9813079833984 L 1.43538761138916 24.96512985229492 L 310.3636779785156 5.935192584991455 L 131.5581665039062 201.9813079833984 Z"/>
          <path class="cls-8" d="M 131.5997619628906 201.1936950683594 L 309.1625366210938 6.51015567779541 L 2.381367921829224 25.40782928466797 L 131.5997619628906 201.1936950683594 M 131.5165557861328 202.7688903808594 L 0.4894457757472992 24.5224666595459 L 311.5647583007812 5.360275268554688 L 131.5165557861328 202.7688903808594 Z"/>
        </g>
      </g>
      <path id="Path_21-3" data-name="Path 21" class="cls-4" d="M43.725,2.592l169.3,1.073-1.37,45.645L.988,49.488Z" transform="translate(461.307 305.159) rotate(-7)"/>
    </g>
    <g id="Group_36" data-name="Group 36">
      <g id="Polygon_1" data-name="Polygon 1" class="cls-2" transform="translate(412.521 96.928) rotate(7)">
        <path class="cls-6" d="M 307.9911193847656 202.5 L 1.008888483047485 202.5 L 154.5 0.8255946040153503 L 307.9911193847656 202.5 Z"/>
        <path class="cls-8" d="M 154.5 1.651138305664062 L 2.017730712890625 202 L 306.9822692871094 202 L 154.5 1.651138305664062 M 154.5 0 L 309 203 L 0 203 L 154.5 0 Z"/>
      </g>
      <g id="Path_20-4" data-name="Path 20" class="cls-5" transform="translate(480.015 139.954) rotate(7)">
        <path class="cls-6" d="M 239.8847961425781 167.3960876464844 L -26.05465698242188 143.1135559082031 L 82.78568267822266 -31.21665954589844 L 239.8847961425781 167.3960876464844 Z"/>
        <path class="cls-8" d="M 82.83390808105469 -30.34976196289062 L -25.20045471191406 142.6894683837891 L 238.7696228027344 166.7921905517578 L 82.83390808105469 -30.34976196289062 M 82.73748779296875 -32.08358764648438 L 240.9999847412109 168 L -26.90892028808594 143.5376434326172 L 82.73748779296875 -32.08358764648438 Z"/>
      </g>
    </g>
  </g>
</svg>
